# xmcd
#
# Track frame offsets:
# 182
# 13640
# 37055
# 52312
# 69060
# 78887
# 92267
# 106832
# 120627
# 133970
# 149350
# 166477
# 179997
# 198372
# 210615
# 223272
# 239647
#
# Disc length: 3381 seconds
#
#
# Revision: 0
# Processed by: cddbd v1.5.1PL0 Copyright (c) Steve Scherf et al.
# Submitted via: FreeRIP 2.941 
#
DISCID=010d3311
DTITLE=Mirek Hoffmann - Byl jsem v Country nebi
DYEAR=1997
DGENRE=Country
TTITLE0=V busi je domov muj
TTITLE1=Byl jsem v country nebi
TTITLE2=Desatero Klubu tulaku
TTITLE3=Nejhezci holku si brat
TTITLE4=Austinske vezeni
TTITLE5=Kitku ruzi jsem ji dal
TTITLE6=Hospoda u Tlustocha
TTITLE7=Tisic carek
TTITLE8=Ctvero setkani
TTITLE9=Posledni prani
TTITLE10=Podivny talisman
TTITLE11=Kuchar z Fowler`s Bay
TTITLE12=Chces si vzit chlapa
TTITLE13=Serif Gray
TTITLE14=Neni vsechno zlaty
TTITLE15=Splacenej dluch
TTITLE16=Mam kovboje cejch
EXTD=Mirek Hoffmann Zelenaci 
EXTT0=
EXTT1=
EXTT2=
EXTT3=
EXTT4=
EXTT5=
EXTT6=
EXTT7=
EXTT8=
EXTT9=
EXTT10=
EXTT11=
EXTT12=
EXTT13=
EXTT14=
EXTT15=
EXTT16=
PLAYORDER=
